<?xml version="1.0" encoding="UTF-8"?>
<svg xmlns="http://www.w3.org/2000/svg" version="1.1" xmlns:xlink="http://www.w3.org/1999/xlink" viewBox="0 0 3710 3710">
  <!-- Generator: Adobe Illustrator 30.2.1, SVG Export Plug-In . SVG Version: 2.1.1 Build 1)  -->
  <defs>
    <style>
      .st0 {
        fill: url(#linear-gradient2);
      }

      .st1 {
        fill: url(#linear-gradient10);
      }

      .st2, .st3, .st4, .st5, .st6 {
        fill: #fff;
      }

      .st7 {
        fill: url(#linear-gradient1);
      }

      .st8 {
        fill: url(#linear-gradient9);
      }

      .st3, .st5 {
        opacity: .5;
      }

      .st9 {
        fill: url(#linear-gradient18);
      }

      .st10 {
        fill: url(#linear-gradient15);
      }

      .st10, .st11, .st12 {
        mix-blend-mode: multiply;
        opacity: .3;
      }

      .st13 {
        fill: url(#linear-gradient8);
      }

      .st14 {
        fill: url(#linear-gradient11);
      }

      .st15 {
        fill: url(#linear-gradient16);
      }

      .st11 {
        fill: url(#linear-gradient20);
      }

      .st16 {
        clip-path: url(#clippath-1);
      }

      .st4 {
        stroke: #fff;
        stroke-miterlimit: 10;
        stroke-width: 28.3px;
      }

      .st17 {
        isolation: isolate;
      }

      .st18 {
        fill: url(#linear-gradient19);
      }

      .st19 {
        fill: url(#linear-gradient12);
      }

      .st20 {
        fill: url(#linear-gradient7);
      }

      .st21 {
        fill: url(#linear-gradient4);
      }

      .st22 {
        fill: url(#linear-gradient14);
      }

      .st23 {
        fill: url(#linear-gradient5);
      }

      .st24 {
        fill: url(#linear-gradient3);
      }

      .st12 {
        fill: url(#linear-gradient17);
      }

      .st5, .st6 {
        mix-blend-mode: soft-light;
      }

      .st25 {
        fill: url(#linear-gradient6);
      }

      .st26 {
        clip-path: url(#clippath-2);
      }

      .st6 {
        opacity: .5;
      }

      .st27 {
        fill: url(#linear-gradient13);
      }

      .st28 {
        fill: url(#linear-gradient);
      }

      .st29 {
        clip-path: url(#clippath);
      }
    </style>
    <linearGradient id="linear-gradient" x1="2672.7" y1="740.3" x2="2151.1" y2="1580.1" gradientUnits="userSpaceOnUse">
      <stop offset="0" stop-color="#fcb148"/>
      <stop offset="0" stop-color="#fdb946"/>
      <stop offset=".1" stop-color="#fec144"/>
      <stop offset=".3" stop-color="#ffc444"/>
      <stop offset=".5" stop-color="#fdb946"/>
      <stop offset=".8" stop-color="#f99c4c"/>
      <stop offset=".9" stop-color="#f8924f"/>
      <stop offset="1" stop-color="#f8924f"/>
    </linearGradient>
    <clipPath id="clippath">
      <path class="st28" d="M2107.7,2193.1c-40.6-117.3-82.9-296.7-40-497.4,49.3-230.4,165.8-278.2,267.2-525.3,162.6-396.3,31.4-684.4,124.4-713.2,96.8-30,340.6,250.6,339,554.8-1.5,281.7-213,479.9-233.9,499-161.1,146.6-289.4,118-391.1,256.4-97.8,133.1-87.1,306.3-65.6,425.7Z"/>
    </clipPath>
    <linearGradient id="linear-gradient1" x1="2828.2" y1="899.3" x2="2411.1" y2="2144" gradientUnits="userSpaceOnUse">
      <stop offset="0" stop-color="#aa80f9"/>
      <stop offset="1" stop-color="#6165d7"/>
    </linearGradient>
    <clipPath id="clippath-1">
      <path class="st7" d="M2112.8,2141c-23.3-83.5-45.8-215.5,10.5-341.8,98.3-220.4,325.9-175.5,512.5-420.5,150.5-197.5,81.8-330.9,257.2-470.4,125.9-100.1,291.4-134.9,315-98.5,25.5,39.1-140.4,118.4-215.8,314.4-98.2,255.1,74.6,401.4-29.9,561.3-79.5,121.6-209.1,82.3-491.7,219.4-164.3,79.7-284.1,172.3-357.8,236Z"/>
    </clipPath>
    <linearGradient id="linear-gradient2" x1="3103.8" y1="1583.7" x2="1877.9" y2="2590.7" gradientUnits="userSpaceOnUse">
      <stop offset="0" stop-color="#e38ddd"/>
      <stop offset="1" stop-color="#9571f6"/>
    </linearGradient>
    <clipPath id="clippath-2">
      <path class="st0" d="M2102,2069.1c46.7-40.2,118.9-95.6,215.8-145,225.7-114.9,340-71.8,463.3-178.5,151.6-131.2,122.1-320.4,171.9-319.2,73.1,1.8,220.2,412.9,40.9,584.7-114.8,110-322.4,82.6-364.7,75.9-100.3-15.9-127.5-51.4-229.2-64.7-123.6-16.1-229.5,17.3-298,46.8Z"/>
    </clipPath>
    <linearGradient id="linear-gradient3" x1="737.4" y1="2301.1" x2="2965.7" y2="2301.1" gradientUnits="userSpaceOnUse">
      <stop offset="0" stop-color="#ff46fa"/>
      <stop offset="0" stop-color="#fc3dea"/>
      <stop offset=".2" stop-color="#f62ac7"/>
      <stop offset=".3" stop-color="#f11baa"/>
      <stop offset=".4" stop-color="#ed0f94"/>
      <stop offset=".6" stop-color="#eb0684"/>
      <stop offset=".8" stop-color="#e9017a"/>
      <stop offset="1" stop-color="#e90078"/>
    </linearGradient>
    <linearGradient id="linear-gradient4" x1="1019.7" y1="3106.1" x2="1168.8" y2="2767" gradientUnits="userSpaceOnUse">
      <stop offset="0" stop-color="#ffc444"/>
      <stop offset="1" stop-color="#f36f56"/>
    </linearGradient>
    <linearGradient id="linear-gradient5" x1="1477.9" y1="2926.6" x2="2967.1" y2="2926.6" gradientUnits="userSpaceOnUse">
      <stop offset=".5" stop-color="#eaedf3"/>
      <stop offset="1" stop-color="#fff"/>
    </linearGradient>
    <linearGradient id="linear-gradient6" x1="1441.5" y1="2927.4" x2="2993.7" y2="2927.4" xlink:href="#linear-gradient4"/>
    <linearGradient id="linear-gradient7" x1="1242.5" y1="2102" x2="970.7" y2="3017.7" gradientUnits="userSpaceOnUse">
      <stop offset="0" stop-color="#ff46fa"/>
      <stop offset="0" stop-color="#fe45f8"/>
      <stop offset=".5" stop-color="#f320b3"/>
      <stop offset=".8" stop-color="#eb0888"/>
      <stop offset="1" stop-color="#e90078"/>
    </linearGradient>
    <linearGradient id="linear-gradient8" y1="2475.4" y2="2475.4" xlink:href="#linear-gradient5"/>
    <linearGradient id="linear-gradient9" x1="1441.5" y1="2480" x2="2993.7" y2="2480" gradientUnits="userSpaceOnUse">
      <stop offset="0" stop-color="#ff46fa"/>
      <stop offset=".2" stop-color="#fe44f6"/>
      <stop offset=".4" stop-color="#fc3eec"/>
      <stop offset=".5" stop-color="#f935db"/>
      <stop offset=".7" stop-color="#f528c3"/>
      <stop offset=".8" stop-color="#f018a5"/>
      <stop offset="1" stop-color="#ea047f"/>
      <stop offset="1" stop-color="#e90078"/>
    </linearGradient>
    <linearGradient id="linear-gradient10" x1="1686.1" y1="2139.7" x2="1525.7" y2="2207.1" gradientUnits="userSpaceOnUse">
      <stop offset="0" stop-color="#40447e"/>
      <stop offset="1" stop-color="#3c3b6b"/>
    </linearGradient>
    <linearGradient id="linear-gradient11" x1="1470.4" y1="1364.6" x2="1292.3" y2="1439.4" xlink:href="#linear-gradient10"/>
    <linearGradient id="linear-gradient12" x1="723.3" y1="1408.9" x2="2334.7" y2="1408.9" xlink:href="#linear-gradient10"/>
    <linearGradient id="linear-gradient13" x1="1858.7" y1="1086.8" x2="953.3" y2="1822.7" gradientUnits="userSpaceOnUse">
      <stop offset="0" stop-color="#ff9085"/>
      <stop offset="1" stop-color="#fb6fbb"/>
    </linearGradient>
    <linearGradient id="linear-gradient14" x1="723.3" y1="2068.8" x2="3004" y2="2068.8" xlink:href="#linear-gradient10"/>
    <linearGradient id="linear-gradient15" x1="947" y1="2048.1" x2="2618" y2="2048.1" xlink:href="#linear-gradient10"/>
    <linearGradient id="linear-gradient16" x1="2803.1" y1="2668.4" x2="2386.2" y2="3234.6" xlink:href="#linear-gradient13"/>
    <linearGradient id="linear-gradient17" x1="2803.1" y1="2668.4" x2="2386.2" y2="3234.6" xlink:href="#linear-gradient13"/>
    <linearGradient id="linear-gradient18" x1="2531.1" y1="2229" x2="2643.1" y2="2762" gradientUnits="userSpaceOnUse">
      <stop offset="0" stop-color="#a1f094"/>
      <stop offset="1" stop-color="#4fc3ba"/>
    </linearGradient>
    <linearGradient id="linear-gradient19" x1="2820.7" y1="2360.8" x2="2605.9" y2="2652.4" gradientUnits="userSpaceOnUse">
      <stop offset="0" stop-color="#311944"/>
      <stop offset="1" stop-color="#6b3976"/>
    </linearGradient>
    <linearGradient id="linear-gradient20" x1="2493" y1="2237" x2="2605" y2="2770" gradientUnits="userSpaceOnUse">
      <stop offset="0" stop-color="#38e8c7"/>
      <stop offset="1" stop-color="#425f63"/>
    </linearGradient>
  </defs>
  <g class="st17">
    <g id="Illustration">
      <g>
        <g>
          <g>
            <path class="st28" d="M2107.7,2193.1c-40.6-117.3-82.9-296.7-40-497.4,49.3-230.4,165.8-278.2,267.2-525.3,162.6-396.3,31.4-684.4,124.4-713.2,96.8-30,340.6,250.6,339,554.8-1.5,281.7-213,479.9-233.9,499-161.1,146.6-289.4,118-391.1,256.4-97.8,133.1-87.1,306.3-65.6,425.7Z"/>
            <g class="st29">
              <path class="st3" d="M2111.6,2456.6c-79.8-319.9-64.9-595.4,44-819.1,65.8-135.1,152.2-223.6,228.4-301.7,92.3-94.6,171.9-176.3,203.2-315.4,44.2-196.8-31.2-421.9-224.2-668.8l3.1-2.5c193.8,248,269.4,474.1,224.9,672.2-31.5,140.2-111.5,222.3-204.2,317.3-76,77.9-162.1,166.2-227.6,300.7-108.6,222.8-123.3,497.4-43.8,816.4l-3.9,1Z"/>
              <path class="st3" d="M2575.1,1069.6l-.6-4c-9.1-64.1-32.1-126.5-66.6-180.5-54.7-85.8-126.6-134.7-177.3-160.6l1.8-3.6c51.1,26.2,123.7,75.5,178.9,162,34,53.4,57,114.9,66.6,178.1,49.5-50.6,88.1-112,111.7-177.7,40.7-113.4,30.7-216,15.1-282.1l3.9-.9c15.7,66.6,25.9,170-15.2,284.4-24.2,67.5-64.1,130.4-115.4,182l-2.8,2.8Z"/>
              <path class="st3" d="M2339.1,1388.3l2.6-3.6c24.9-34.8,65.9-107.8,60.3-206.5-5.1-90.5-47.3-155-72-185.4l3.1-2.5c25,30.8,67.7,96.1,72.9,187.7,5.5,96.7-33.2,169-58.5,205.5,99.3-10.1,194.8-43.2,276.4-95.6,187-120.2,253.1-308.8,272.9-384.3l3.9,1c-19.9,76-86.4,265.7-274.6,386.7-83.3,53.6-181,87-282.5,96.7l-4.4.4Z"/>
              <path class="st3" d="M2138.4,1684v-2c-2.4-46.4-2.4-93.4,0-139.7,4.9-99.8,20.6-199.7,46.6-297l3.9,1c-25.9,97-41.5,196.7-46.5,296.2-2.3,45.5-2.3,91.7,0,137.3,110.1-5.3,215.6-30.9,313.7-76.2,221.7-102.5,342.9-279.4,395.4-375.7l3.5,1.9c-52.7,96.8-174.4,274.4-397.2,377.4-99.1,45.8-205.8,71.6-317.1,76.7h-2Z"/>
            </g>
          </g>
          <g>
            <path class="st7" d="M2112.8,2141c-23.3-83.5-45.8-215.5,10.5-341.8,98.3-220.4,325.9-175.5,512.5-420.5,150.5-197.5,81.8-330.9,257.2-470.4,125.9-100.1,291.4-134.9,315-98.5,25.5,39.1-140.4,118.4-215.8,314.4-98.2,255.1,74.6,401.4-29.9,561.3-79.5,121.6-209.1,82.3-491.7,219.4-164.3,79.7-284.1,172.3-357.8,236Z"/>
            <g class="st16">
              <path class="st3" d="M2074.1,2431.7h-4c.3-305.1,75.4-524,223.3-650.9,70.3-60.3,138.5-85,204.4-108.9,81-29.3,157.5-57.1,227.9-148.4,62.9-81.6,74.7-154.2,87.1-231,11.4-70.8,23.3-144,74.8-232.1,77.2-132.2,207.3-234,386.5-302.7l1.4,3.7c-178.4,68.4-307.8,169.7-384.5,301-51.1,87.5-62.9,160.3-74.3,230.7-12.5,77.3-24.3,150.4-87.9,232.8-71.1,92.2-148.2,120.2-229.7,149.7-65.6,23.8-133.3,48.3-203.1,108.2-146.9,126-221.6,344-221.9,647.8Z"/>
              <path class="st3" d="M2826.5,1234.8l-1.9-5.2c-17.4-48.4-25.3-98.4-23.6-148.7,4.1-118.5,61.6-205.7,95.5-247.1l3.1,2.5c-33.6,41-90.6,127.4-94.6,244.7-1.6,48,5.6,95.7,21.5,142,27.2-73,67.8-125.8,120.6-156.9,55.6-32.7,106.2-31.2,159.8-29.7,33.1.9,67.4,1.9,103.3-5.8,109.9-23.7,206.5-124.4,287.3-299.3l3.6,1.7c-81.3,176.1-178.9,277.6-290,301.5-36.4,7.8-70.9,6.9-104.2,5.9-53-1.5-103.1-2.9-157.6,29.2-53.3,31.4-94,85.2-120.8,160l-1.9,5.2Z"/>
              <path class="st3" d="M2702.4,1554.9l-.3-2.1c-6.9-45.3-11.2-91.5-12.6-137.3-3.1-97.7,6.3-196.2,28.1-292.7l3.9.9c-21.7,96.2-31.1,194.3-28,291.7,1.4,44.9,5.6,90.2,12.3,134.7,66.1-14,127.5-40.7,182.4-79.3,83.5-58.7,131.8-131.5,157.6-182.2l3.6,1.8c-26,51.1-74.6,124.5-158.8,183.7-56,39.3-118.5,66.3-186,80.4l-2.1.4Z"/>
              <path class="st3" d="M2746.8,1755.8c-16.5,0-33.3-.6-50.5-1.7-82.9-5.7-164.4-25.4-242.1-58.6l-2.8-1.2,2.2-2.1c40-37.6,71-84.3,89.9-135.2,15.4-41.8,22.8-85.7,21.8-130.5h4c1,45.3-6.4,89.7-22,131.9-18.7,50.5-49.3,97-88.7,134.6,76.4,32.3,156.5,51.5,238,57.1,181.5,12.5,328.6-45,420.1-95.4l1.9,3.5c-83.3,45.9-212.6,97.6-371.9,97.6Z"/>
              <path class="st3" d="M2575,1932.6c-21.9-26.7-69.8-73.9-144.4-91.1-130.7-30-232.9,58.2-244.1,68.3l-3.6,3.3.3-4.9c2.8-47,11.6-93.3,26.2-137.6,24.7-75,65-143.1,119.8-202.4l2.9,2.7c-54.4,58.8-94.4,126.5-118.9,200.9-14,42.5-22.6,86.8-25.7,131.8,22.1-18.9,120.5-94.4,244.1-66.1,75.7,17.4,124.4,65.4,146.6,92.4l-3.1,2.5Z"/>
            </g>
          </g>
          <g>
            <path class="st0" d="M2102,2069.1c46.7-40.2,118.9-95.6,215.8-145,225.7-114.9,340-71.8,463.3-178.5,151.6-131.2,122.1-320.4,171.9-319.2,73.1,1.8,220.2,412.9,40.9,584.7-114.8,110-322.4,82.6-364.7,75.9-100.3-15.9-127.5-51.4-229.2-64.7-123.6-16.1-229.5,17.3-298,46.8Z"/>
            <g class="st26">
              <g>
                <path class="st3" d="M2046.4,2104.4l-2.4-3.2c133.8-103.5,267.5-155,397.4-152.8,70,1.1,124.4,17.2,172.4,31.4,63.2,18.6,117.7,34.7,183.7,7.6,84.2-34.7,148.6-124.3,181.2-252.4,52.2-205.3-63.4-376.6-100.1-424.2l3.2-2.4c37,48,153.5,220.6,100.8,427.7-32.9,129.4-98.1,220-183.5,255.1-67.3,27.7-122.5,11.4-186.4-7.5-47.8-14.1-101.9-30.1-171.4-31.2-128.9-2.2-261.8,49-394.9,152Z"/>
                <path class="st3" d="M2935,1854.1l.7-3.9c11.1-58.8,11.1-118.4,0-177-12.3-64.6-38.6-127.4-76.2-181.7l3.3-2.3c37.9,54.7,64.4,118.1,76.8,183.2,11,57.8,11.2,116.4.7,174.5,31.6-16.2,74.3-45.7,105.4-96,66.4-107.1,27.9-225.1,19.5-247.6l3.7-1.4c8.5,22.9,47.5,142.4-19.9,251.1-32.8,53-78.3,83.2-110.6,99.3l-3.6,1.8Z"/>
                <path class="st3" d="M2850.6,2078c-41.3,0-85.9-5.7-131.7-20.5-55.8-18.1-107.2-47.4-152.9-87.2l-4.6-4,6,.5c87.6,7,169.7-32,214.2-101.9,47.5-74.7,31.8-154.9,25.9-177.7l3.9-1c6,23.2,22,104.8-26.4,180.8-44.2,69.5-125,109.1-211.9,104.2,44.1,37.4,93.5,65.1,146.9,82.5,152.2,49.3,289.6-3.3,341.6-28.2l1.7,3.6c-36.8,17.6-115.9,48.9-212.9,48.9Z"/>
                <path class="st3" d="M2628.4,2175.8c-21.4-45.8-72.4-129.8-173-177.1-42.4-19.9-88.2-31-136.2-32.7v-4c80.2-7.8,138.8-30.6,173.8-67.6,3.2-3.3,7.2-7.9,13.4-14.9,8.3-9.4,20.8-23.6,40.1-44.7,19.2-21.1,38.7-42.1,57.8-62.4l2.9,2.7c-19.1,20.3-38.5,41.2-57.7,62.3-19.2,21.1-31.7,35.3-40,44.7-6.2,7-10.3,11.6-13.5,15-32.5,34.3-84.5,56.6-154.8,66.3,40.7,3.9,79.6,14.5,116,31.7,101.8,47.9,153.3,132.8,174.9,179.1l-3.6,1.7Z"/>
              </g>
            </g>
          </g>
        </g>
        <g>
          <polygon class="st24" points="737.4 2121 1793.3 2185.3 2965.7 2117.8 1809.4 2484.4 737.4 2121"/>
          <g>
            <path class="st21" d="M1592.2,3228.1l-859.2-335.1c-84.5-22.7-150.1-106.4-150.1-187.6v-.9c0-81.2,65.6-135.6,150.1-120.7l920.1,256.6-60.8,387.7Z"/>
            <g>
              <path class="st23" d="M2967.1,2949.2l-1334.6,260.7c-84.9,9.5-154.7-49.7-154.7-132.3v-56.1c0-82.6,69.8-155.2,154.7-161.9l1334.6-217.2c-60,111.6-73.8,216.1,0,306.8Z"/>
              <path class="st25" d="M2978.9,2964.2l-1335,263.1c-110.7,12.6-202.4-65-202.4-173.1v-1.2c0-108.1,91.7-203.2,202.4-211.8l1335-215.1c8.2-.6,14.8,6.2,14.8,15.2s-6.6,16.9-14.8,17.5l-1335,219.7c-89.1,7.3-162.6,83.9-162.6,170.7v1.2c0,86.8,73.5,149.4,162.6,139.6l1335-258.4c8.2-.9,14.8,5.7,14.8,14.7s-6.6,17.1-14.8,18Z"/>
            </g>
          </g>
          <g>
            <path class="st20" d="M1627.4,2841.3l-894.5-257.5c-84.5-14.9-150.1-125.6-150.1-247.5v-1.3c0-121.9,65.6-218.6,150.1-215.4l947.6,143.8-53.1,577.9Z"/>
            <g>
              <path class="st13" d="M2967.1,2602.5l-1258.6,205.8c-126.2,9.5-230.6-83.2-230.6-207.2v-84.2c0-124.1,104.4-227.5,230.6-230.9l1258.6-144.2c-60.2,167.3-73.6,323.9,0,460.7Z"/>
              <path class="st8" d="M2978.9,2626.1l-1335,215.1c-110.7,8.6-202.4-116.3-202.4-278.6v-1.8c0-162.3,91.7-296.6,202.4-299.4l1335-143.1c8.2-.2,14.8,10.6,14.8,24.1s-6.6,24.7-14.8,24.9l-1335,150c-89.1,2.7-162.6,110.9-162.6,241.3v1.8c0,130.4,73.5,231.1,162.6,224.6l1335-208.1c8.2-.6,14.8,9.9,14.8,23.4s-6.6,25-14.8,25.7Z"/>
            </g>
          </g>
          <path class="st5" d="M1356.4,2719.2l-207.4-56.1c-43.6-119.1-40.3-228.4,0-359.1l207.4,36.8c-38.3,137.6-32.5,262.2,0,378.5Z"/>
        </g>
        <g>
          <path class="st1" d="M3004,2050l-2280.7-22v65.1c0,17.7,9.9,32.7,23.4,35.4l644.9,128.2c7.7,1.5,15.4,1.9,23.1,1.2l1564.4-146.1c14-1.3,24.8-16.4,24.8-34.5v-27.2Z"/>
          <g>
            <path class="st14" d="M2269.8,1944.5l-1521.4,119.1c-27.2,2.1-49.4-20.5-49.4-50.6V808.5c0-30.1,22.1-54.4,49.4-54.4h1521.4c22.4,0,40.6,22,40.6,49.2v1088.8c0,27.2-18.1,50.6-40.6,52.4Z"/>
            <path class="st19" d="M2294.1,1944.5l-1521.4,119.1c-27.2,2.1-49.4-20.5-49.4-50.6V808.5c0-30.1,22.1-54.4,49.4-54.4h1521.4c22.4,0,40.6,22,40.6,49.2v1088.8c0,27.2-18.1,50.6-40.6,52.4Z"/>
            <path class="st27" d="M2246.7,1867.7l-1417,103.4c-22.2,1.6-40.2-17-40.2-41.5V875.1c0-24.5,18-44.5,40.2-44.6l1417-6.5c18.5,0,33.5,18,33.5,40.3v960.5c0,22.4-15,41.6-33.5,42.9Z"/>
            <path class="st2" d="M1587.1,787c0,11.2-7.8,20.3-17.5,20.3-9.7,0-17.5-9-17.5-20.3s7.9-20.3,17.5-20.3c9.7,0,17.5,9.1,17.5,20.3Z"/>
            <path class="st6" d="M1927.5,1614.2c-117.3-69.9-209.5,18.7-298.5-68.7-54-53-27.5-92.5-93.9-171.6-73.5-87.7-121.4-58.2-195.3-137.1-93.4-99.8-46.7-177.4-127.2-249-97.6-86.9-203-6.5-295.9-89.8-40.1-35.9-62.1-88.2-73.6-143.8h-91c-15.9,0-28.9,14.3-28.9,32v1248.5c0,17.6,12.9,30.9,28.9,29.7l1550.6-121.9c7.6-.6,14.4-5.5,18.7-12.7-113.5-4.6-183.2-46.7-227.8-90.3-87.2-85.2-72.1-169.3-166.1-225.3Z"/>
          </g>
          <path class="st22" d="M2256.1,1939.1l-1532.8,125.3,668.3,132.8c7.7,1.5,15.4,1.9,23.1,1.2l1589.2-148.4-723.5-110.1c-8.1-1.2-16.3-1.5-24.4-.9Z"/>
          <polygon class="st10" points="947 2067.6 2223.1 1961.7 2618 2021.3 1352.9 2134.5 947 2067.6"/>
        </g>
        <g>
          <path class="st15" d="M2752,2590.2c-34,29.8-85.2,27.4-116.8-4.9-39.4-40.3-113.2-67.7-245.6,16.1-236.4,149.6,24.9,572.9,174.2,585.3,149.3,12.4,199.1-24.8,273.8,0,74.7,24.8,180.4-141.2,224-291.5,43.6-150.3-68.4-328.7-180.4-348.4-55.1-9.7-96.7,15-129.1,43.5Z"/>
          <path class="st12" d="M2947.2,3043.5l-56.9,35.2c-56.9,35.2-80.7-101.5-185.3-187.4-104.6-85.9-310-24.1-299-171.7,5.5-73.6,42.4-127.8,78.1-163.7-27.6,8.4-59,22.8-94.6,45.4-236.4,149.6,24.9,572.9,174.2,585.3,149.3,12.4,199.1-24.8,273.8,0,64.1,21.3,151.1-98.1,202-227.4l-92.4,84.3Z"/>
          <path class="st9" d="M2713.6,2615.4s106.9-174.1-73.5-223.9c-180.4-49.8-257.2-116.5-257.2-116.5,0,0,45.6,145.1,78.8,254.2,33.2,109.1,192.7,133.8,251.9,86.2Z"/>
          <path class="st18" d="M2762.8,2412.5c-31.1,3.6-18.7-45.1-48.5-12.6-26,28.3-30.5,183.9-31.3,223.8,0,5.2,4,9.5,9.1,9.7h0c5.5.3,10-4.1,10-9.6-.4-85.8,92.1-182.6,102.1-202.2,10.4-20.4-10.4-12.7-41.5-9.1Z"/>
          <path class="st11" d="M2636.3,2514.2c-14.1-78.2-74.7-63.8-197-169.6-19.7-17-36.1-33.3-49.8-48.6,13.8,44.1,46.7,149.3,72.2,233.2,29.6,97.3,159.6,127.4,229.4,99.1-23.1-20.4-44.2-55.3-54.8-114.2Z"/>
        </g>
      </g>
      <ellipse class="st4" cx="1569.6" cy="1324.1" rx="398.3" ry="266.9" transform="translate(-64.1 79.9) rotate(-2.9)"/>
      <path class="st4" d="M1400.2,1555.9s30.4,87.8-44.5,110,113.6,11.7,161.6-96-117.1-14-117.1-14Z"/>
    </g>
  </g>
</svg>
